<?xml version="1.0" encoding="UTF-8" standalone="no"?>
<svg width="30px" height="21px" viewBox="0 0 30 21" version="1.1" xmlns="http://www.w3.org/2000/svg" xmlns:xlink="http://www.w3.org/1999/xlink">
    <!-- Generator: Sketch 41.2 (35397) - http://www.bohemiancoding.com/sketch -->
    <title>Shape</title>
    <desc>Created with Sketch.</desc>
    <defs></defs>
    <g id="Mockups" stroke="none" stroke-width="1" fill="none" fill-rule="evenodd">
        <g id="Downloads" transform="translate(-465.000000, -978.000000)" fill="#7C8FA1">
            <g id="f162" transform="translate(465.000000, 978.000000)">
                <path d="M21.269531,11.25 L15,17.519532 L8.730469,11.25 L12.480469,11.25 L12.480469,6.269532 L17.519531,6.269532 L17.519531,11.25 L21.269531,11.25 Z M24.199219,7.558594 C23.730469,5.371094 22.65625,3.574219 20.976562,2.167969 C19.296875,0.761719 17.304688,0.039063 15,0 C13.164062,0.039063 11.523438,0.507813 10.078125,1.40625 C8.632812,2.304688 7.5,3.515625 6.679688,5.039063 C4.765625,5.3125 3.183594,6.132813 1.933594,7.5 C0.683594,8.867188 0.039062,10.546875 0,12.539063 C0.039062,14.648438 0.771484,16.40625 2.197266,17.8125 C3.623047,19.21875 5.390625,19.960938 7.5,20.039063 L23.730469,20.039063 C25.527344,20 27.011719,19.384766 28.183594,18.19336 C29.355469,17.001953 29.960938,15.527344 30,13.769532 C29.960938,12.089844 29.394531,10.673828 28.300781,9.521485 C27.207031,8.369141 25.839844,7.714844 24.199219,7.558594 L24.199219,7.558594 Z" id="Shape"></path>
            </g>
        </g>
    </g>
</svg>