<svg xmlns="http://www.w3.org/2000/svg" xmlns:xlink="http://www.w3.org/1999/xlink" width="18" height="18" version="1.1" viewBox="0 0 18 18"><title>Shape</title><desc>Created with Sketch.</desc><g id="Mockups" fill="none" fill-rule="evenodd" stroke="none" stroke-width="1"><g id="Downloads" fill="#FFF" transform="translate(-1183.000000, -24.000000)"><g id="Header"><g id="e8b6"><g transform="translate(1183.000000, 24.000000)"><path id="Shape" d="M6.72809083,11.37483 C8.0188517,11.37483 9.11599843,10.9230645 10.019531,10.0195319 C10.9230637,9.11599926 11.37483,8.0188517 11.37483,6.72809083 C11.37483,5.43732996 10.9230637,4.34018404 10.019531,3.43665143 C9.11599843,2.53311883 8.0188517,2.0813517 6.72809083,2.0813517 C5.43732996,2.0813517 4.34018322,2.53311883 3.43665061,3.43665143 C2.533118,4.34018404 2.0813517,5.43732996 2.0813517,6.72809083 C2.0813517,8.0188517 2.533118,9.11599926 3.43665061,10.0195319 C4.34018322,10.9230645 5.43732996,11.37483 6.72809083,11.37483 L6.72809083,11.37483 Z M12.923743,11.37483 L18.0545179,16.5056048 L16.5056048,18.0545179 L11.37483,12.923743 L11.37483,12.1008836 L11.0844092,11.810462 C9.85818635,12.8753401 8.40607996,13.4077787 6.72809083,13.4077787 C4.85648757,13.4077787 3.26723835,12.7623983 1.96034317,11.4716374 C0.653448,10.1808766 0,8.59969491 0,6.72809083 C0,4.85648839 0.653448,3.26723835 1.96034317,1.96034317 C3.26723835,0.653448 4.85648757,0 6.72809083,0 C8.59969409,0 10.1808766,0.653448 11.4716374,1.96034317 C12.7623983,3.26723835 13.4077787,4.85648839 13.4077787,6.72809083 C13.4077787,8.40607996 12.8753401,9.85818635 11.810462,11.0844092 L12.1008836,11.37483 L12.923743,11.37483 Z"/></g></g></g></g></g></svg>